<?xml version="1.0" encoding="utf-8"?>
<!DOCTYPE svg
  PUBLIC '-//W3C//DTD SVG 1.0//EN'
  'http://www.w3.org/TR/2001/REC-SVG-20010904/DTD/svg10.dtd'>
<svg width="246" height="275" preserveAspectRatio="xMinYMin meet" viewBox="0 0 246 275" xmlns="http://www.w3.org/2000/svg" version="1.0" fill-rule="evenodd" xmlns:xlink="http://www.w3.org/1999/xlink">
	<title>...</title>
	<desc>...</desc>
	<clipPath id="clip">
		<rect x="0" y="0" width="246" height="275"/>
	</clipPath>
	<g id="group" transform="scale(1,-1) translate(0,-275)" style="clip-path: url(#clip)">
		<g transform="">
			<text x="63.171289062499994" y="262" style="font-family: ArialEmbedded-Bold; font-size: 7.4px;fill: rgb(12%,12%,14%); stroke:none;" transform="translate(0,524) scale(1,-1)">Independent background lifecycle</text>
			<rect x="79" y="224" width="88" height="22" rx="4" ry="4" style="stroke: rgb(12%,12%,14%); stroke-linecap: butt; stroke-width: 1.15; fill: rgb(96%,85%,87%); fill-rule: evenodd;"/>
			<text x="105.83935546875" y="232.515" style="font-family: ArialEmbedded-Bold; font-size: 7.1px;fill: rgb(12%,12%,14%); stroke:none;" transform="translate(0,465) scale(1,-1)">REQUEST</text>
			<rect x="8" y="176" width="66" height="28" rx="4" ry="4" style="stroke: rgb(12%,12%,14%); stroke-linecap: butt; stroke-width: 1.15; fill: rgb(96%,96%,96%); fill-rule: evenodd;"/>
			<text x="18.781616210937496" y="191.67499999999998" style="font-family: ArialEmbedded; font-size: 6.5px;fill: rgb(12%,12%,14%); stroke:none;" transform="translate(0,383) scale(1,-1)">UNAVAILABLE</text>
			<text x="20.94775390625" y="183.77499999999998" style="font-family: ArialEmbedded; font-size: 6.5px;fill: rgb(12%,12%,14%); stroke:none;" transform="translate(0,367) scale(1,-1)">no workspace</text>
			<rect x="90" y="176" width="66" height="28" rx="4" ry="4" style="stroke: rgb(12%,12%,14%); stroke-linecap: butt; stroke-width: 1.15; fill: rgb(84%,92%,85%); fill-rule: evenodd;"/>
			<text x="107.832275390625" y="191.67499999999998" style="font-family: ArialEmbedded; font-size: 6.5px;fill: rgb(12%,12%,14%); stroke:none;" transform="translate(0,383) scale(1,-1)">STARTED</text>
			<text x="106.0216064453125" y="183.77499999999998" style="font-family: ArialEmbedded; font-size: 6.5px;fill: rgb(12%,12%,14%); stroke:none;" transform="translate(0,367) scale(1,-1)">new task ID</text>
			<rect x="172" y="176" width="66" height="28" rx="4" ry="4" style="stroke: rgb(12%,12%,14%); stroke-linecap: butt; stroke-width: 1.15; fill: rgb(92%,91%,72%); fill-rule: evenodd;"/>
			<text x="179.508251953125" y="191.63000000000002" style="font-family: ArialEmbedded; font-size: 6.2px;fill: rgb(12%,12%,14%); stroke:none;" transform="translate(0,383) scale(1,-1)">RUNNING / BUSY</text>
			<text x="187.418701171875" y="184.03000000000003" style="font-family: ArialEmbedded; font-size: 6.2px;fill: rgb(12%,12%,14%); stroke:none;" transform="translate(0,368) scale(1,-1)">deduplicated</text>
			<path d="M 97,224 L 41,204 Z" style="stroke: rgb(12%,12%,14%); stroke-linecap: butt; stroke-width: 1.1;"/>
			<polygon points="41 204, 46.07027 203.1827, 44.40541 207.8443" style="stroke: rgb(12%,12%,14%); stroke-linecap: butt; stroke-width: 1; fill: rgb(12%,12%,14%); fill-rule: evenodd;"/>
			<path d="M 123,224 L 123,204 Z" style="stroke: rgb(12%,12%,14%); stroke-linecap: butt; stroke-width: 1.1;"/>
			<polygon points="123 204, 125.475 208.5, 120.525 208.5" style="stroke: rgb(12%,12%,14%); stroke-linecap: butt; stroke-width: 1; fill: rgb(12%,12%,14%); fill-rule: evenodd;"/>
			<path d="M 149,224 L 205,204 Z" style="stroke: rgb(12%,12%,14%); stroke-linecap: butt; stroke-width: 1.1;"/>
			<polygon points="205 204, 201.5946 207.8443, 199.9297 203.1827" style="stroke: rgb(12%,12%,14%); stroke-linecap: butt; stroke-width: 1; fill: rgb(12%,12%,14%); fill-rule: evenodd;"/>
			<rect x="77" y="116" width="92" height="34" rx="4" ry="4" style="stroke: rgb(12%,12%,14%); stroke-linecap: butt; stroke-width: 1.15; fill: rgb(95%,87%,76%); fill-rule: evenodd;"/>
			<text x="82.850537109375" y="134.69" style="font-family: ArialEmbedded-Bold; font-size: 6.6px;fill: rgb(12%,12%,14%); stroke:none;" transform="translate(0,269) scale(1,-1)">MODEL-DIRECTED LOOP</text>
			<text x="83.943017578125" y="126.69" style="font-family: ArialEmbedded-Bold; font-size: 6.6px;fill: rgb(12%,12%,14%); stroke:none;" transform="translate(0,253) scale(1,-1)">separate AbortController</text>
			<path d="M 123,176 L 123,150 Z" style="stroke: rgb(12%,12%,14%); stroke-linecap: butt; stroke-width: 1.1;"/>
			<polygon points="123 150, 125.475 154.5, 120.525 154.5" style="stroke: rgb(12%,12%,14%); stroke-linecap: butt; stroke-width: 1; fill: rgb(12%,12%,14%); fill-rule: evenodd;"/>
			<path d="M 205,176 L 169,144 Z" style="stroke: rgb(12%,12%,14%); stroke-linecap: butt; stroke-width: 1.1;"/>
			<polygon points="169 144, 174.0076 145.1398, 170.719 148.8395" style="stroke: rgb(12%,12%,14%); stroke-linecap: butt; stroke-width: 1; fill: rgb(12%,12%,14%); fill-rule: evenodd;"/>
			<rect x="4" y="55" width="54" height="28" rx="4" ry="4" style="stroke: rgb(12%,12%,14%); stroke-linecap: butt; stroke-width: 1.15; fill: rgb(84%,92%,85%); fill-rule: evenodd;"/>
			<text x="12.0194091796875" y="70.615" style="font-family: ArialEmbedded; font-size: 6.1px;fill: rgb(12%,12%,14%); stroke:none;" transform="translate(0,141) scale(1,-1)">COMPLETED</text>
			<text x="16.080615234375003" y="63.114999999999995" style="font-family: ArialEmbedded; font-size: 6.1px;fill: rgb(12%,12%,14%); stroke:none;" transform="translate(0,126) scale(1,-1)">pack ready</text>
			<rect x="65" y="55" width="54" height="28" rx="4" ry="4" style="stroke: rgb(12%,12%,14%); stroke-linecap: butt; stroke-width: 1.15; fill: rgb(95%,82%,81%); fill-rule: evenodd;"/>
			<text x="81.322021484375" y="70.615" style="font-family: ArialEmbedded; font-size: 6.1px;fill: rgb(12%,12%,14%); stroke:none;" transform="translate(0,141) scale(1,-1)">FAILED</text>
			<text x="85.56044921875" y="63.114999999999995" style="font-family: ArialEmbedded; font-size: 6.1px;fill: rgb(12%,12%,14%); stroke:none;" transform="translate(0,126) scale(1,-1)">error</text>
			<rect x="126" y="55" width="54" height="28" rx="4" ry="4" style="stroke: rgb(12%,12%,14%); stroke-linecap: butt; stroke-width: 1.15; fill: rgb(86%,87%,94%); fill-rule: evenodd;"/>
			<text x="139.141455078125" y="70.57" style="font-family: ArialEmbedded; font-size: 5.8px;fill: rgb(12%,12%,14%); stroke:none;" transform="translate(0,141) scale(1,-1)">STOPPED</text>
			<text x="134.947216796875" y="63.36999999999999" style="font-family: ArialEmbedded; font-size: 5.8px;fill: rgb(12%,12%,14%); stroke:none;" transform="translate(0,126) scale(1,-1)">explicit cancel</text>
			<rect x="187" y="55" width="54" height="28" rx="4" ry="4" style="stroke: rgb(12%,12%,14%); stroke-linecap: butt; stroke-width: 1.15; fill: rgb(92%,91%,72%); fill-rule: evenodd;"/>
			<text x="200.50146484375" y="70.60000000000001" style="font-family: ArialEmbedded; font-size: 6.0px;fill: rgb(12%,12%,14%); stroke:none;" transform="translate(0,141) scale(1,-1)">TIMEOUT</text>
			<text x="199.908203125" y="63.20000000000001" style="font-family: ArialEmbedded; font-size: 6.0px;fill: rgb(12%,12%,14%); stroke:none;" transform="translate(0,126) scale(1,-1)">abort + fail</text>
			<path d="M 98,116 L 31,83 Z" style="stroke: rgb(12%,12%,14%); stroke-linecap: butt; stroke-width: 1.1;"/>
			<polygon points="31 83, 36.13048 82.76803, 33.94332 87.20862" style="stroke: rgb(12%,12%,14%); stroke-linecap: butt; stroke-width: 1; fill: rgb(12%,12%,14%); fill-rule: evenodd;"/>
			<path d="M 115,116 L 92,83 Z" style="stroke: rgb(12%,12%,14%); stroke-linecap: butt; stroke-width: 1.1;"/>
			<polygon points="92 83, 96.60355 85.2766, 92.54258 88.10698" style="stroke: rgb(12%,12%,14%); stroke-linecap: butt; stroke-width: 1; fill: rgb(12%,12%,14%); fill-rule: evenodd;"/>
			<path d="M 132,116 L 153,83 Z" style="stroke: rgb(12%,12%,14%); stroke-linecap: butt; stroke-width: 1.1;"/>
			<polygon points="153 83, 152.6721 88.12524, 148.496 85.46771" style="stroke: rgb(12%,12%,14%); stroke-linecap: butt; stroke-width: 1; fill: rgb(12%,12%,14%); fill-rule: evenodd;"/>
			<path d="M 149,116 L 214,83 Z" style="stroke: rgb(12%,12%,14%); stroke-linecap: butt; stroke-width: 1.1;"/>
			<polygon points="214 83, 211.1079 87.24399, 208.8671 82.83024" style="stroke: rgb(12%,12%,14%); stroke-linecap: butt; stroke-width: 1; fill: rgb(12%,12%,14%); fill-rule: evenodd;"/>
			<path d="M 10,23 L 236,23 Z" style="stroke: rgb(78%,80%,83%); stroke-linecap: butt; stroke-width: 0.8;"/>
			<text x="10" y="10" style="font-family: ArialEmbedded-Bold; font-size: 6.2px;fill: rgb(12%,12%,14%); stroke:none;" transform="translate(0,20) scale(1,-1)">Primary Ctrl+C</text>
			<path d="M 62,12 L 107,12 Z" style="stroke: rgb(12%,12%,14%); stroke-linecap: butt; stroke-width: 1.1;"/>
			<polygon points="107 12, 102.5 14.475, 102.5 9.525" style="stroke: rgb(12%,12%,14%); stroke-linecap: butt; stroke-width: 1; fill: rgb(12%,12%,14%); fill-rule: evenodd;"/>
			<text x="111" y="10" style="font-family: ArialEmbedded; font-size: 6.2px;fill: rgb(37%,38%,40%); stroke:none;" transform="translate(0,20) scale(1,-1)">primary run only</text>
			<text x="173.99697265625" y="10" style="font-family: ArialEmbedded-Bold; font-size: 6.2px;fill: rgb(12%,12%,14%); stroke:none;" transform="translate(0,20) scale(1,-1)">no parent-abort edge</text>
		</g>
	</g>
</svg>
