<?xml version="1.0" encoding="utf-8"?>
<!DOCTYPE svg
  PUBLIC '-//W3C//DTD SVG 1.0//EN'
  'http://www.w3.org/TR/2001/REC-SVG-20010904/DTD/svg10.dtd'>
<svg width="246" height="315" preserveAspectRatio="xMinYMin meet" viewBox="0 0 246 315" xmlns="http://www.w3.org/2000/svg" version="1.0" fill-rule="evenodd" xmlns:xlink="http://www.w3.org/1999/xlink">
	<title>...</title>
	<desc>...</desc>
	<clipPath id="clip">
		<rect x="0" y="0" width="246" height="315"/>
	</clipPath>
	<g id="group" transform="scale(1,-1) translate(0,-315)" style="clip-path: url(#clip)">
		<g transform="">
			<rect x="69" y="279" width="108" height="24" rx="4" ry="4" style="stroke: rgb(12%,12%,14%); stroke-linecap: butt; stroke-width: 1.15; fill: rgb(84%,92%,85%); fill-rule: evenodd;"/>
			<text x="85.1947265625" y="288.48" style="font-family: ArialEmbedded-Bold; font-size: 7.2px;fill: rgb(12%,12%,14%); stroke:none;" transform="translate(0,576) scale(1,-1)">RANKED_CODE_MAP</text>
			<rect x="53" y="229" width="140" height="32" rx="4" ry="4" style="stroke: rgb(12%,12%,14%); stroke-linecap: butt; stroke-width: 1.15; fill: rgb(92%,91%,72%); fill-rule: evenodd;"/>
			<text x="98.99912109375" y="246.72" style="font-family: ArialEmbedded; font-size: 6.8px;fill: rgb(12%,12%,14%); stroke:none;" transform="translate(0,493) scale(1,-1)">Report validator</text>
			<text x="77.16640625" y="238.52" style="font-family: ArialEmbedded; font-size: 6.8px;fill: rgb(12%,12%,14%); stroke:none;" transform="translate(0,477) scale(1,-1)">paths read + required sections</text>
			<path d="M 123,261 L 123,279 Z" style="stroke: rgb(12%,12%,14%); stroke-linecap: butt; stroke-width: 1.1;"/>
			<polygon points="123 279, 120.525 274.5, 125.475 274.5" style="stroke: rgb(12%,12%,14%); stroke-linecap: butt; stroke-width: 1; fill: rgb(12%,12%,14%); fill-rule: evenodd;"/>
			<rect x="53" y="179" width="140" height="32" rx="4" ry="4" style="stroke: rgb(12%,12%,14%); stroke-linecap: butt; stroke-width: 1.15; fill: rgb(86%,87%,94%); fill-rule: evenodd;"/>
			<text x="98.61728515625" y="196.72" style="font-family: ArialEmbedded; font-size: 6.8px;fill: rgb(12%,12%,14%); stroke:none;" transform="translate(0,393) scale(1,-1)">Evidence ledger</text>
			<text x="90.1123046875" y="188.52" style="font-family: ArialEmbedded; font-size: 6.8px;fill: rgb(12%,12%,14%); stroke:none;" transform="translate(0,377) scale(1,-1)">path : line range : role</text>
			<path d="M 123,211 L 123,229 Z" style="stroke: rgb(12%,12%,14%); stroke-linecap: butt; stroke-width: 1.1;"/>
			<polygon points="123 229, 120.525 224.5, 125.475 224.5" style="stroke: rgb(12%,12%,14%); stroke-linecap: butt; stroke-width: 1; fill: rgb(12%,12%,14%); fill-rule: evenodd;"/>
			<rect x="16" y="118" width="62" height="36" rx="4" ry="4" style="stroke: rgb(12%,12%,14%); stroke-linecap: butt; stroke-width: 1.15; fill: rgb(81%,90%,95%); fill-rule: evenodd;"/>
			<text x="25.46064453125" y="137.64499999999998" style="font-family: ArialEmbedded; font-size: 6.3px;fill: rgb(12%,12%,14%); stroke:none;" transform="translate(0,275) scale(1,-1)">search_content</text>
			<text x="30.191796875" y="129.945" style="font-family: ArialEmbedded; font-size: 6.3px;fill: rgb(12%,12%,14%); stroke:none;" transform="translate(0,259) scale(1,-1)">search_files</text>
			<rect x="92" y="118" width="62" height="36" rx="4" ry="4" style="stroke: rgb(12%,12%,14%); stroke-linecap: butt; stroke-width: 1.15; fill: rgb(81%,90%,95%); fill-rule: evenodd;"/>
			<text x="100.2409423828125" y="137.64499999999998" style="font-family: ArialEmbedded; font-size: 6.3px;fill: rgb(12%,12%,14%); stroke:none;" transform="translate(0,275) scale(1,-1)">search_symbols</text>
			<text x="103.9108154296875" y="129.945" style="font-family: ArialEmbedded; font-size: 6.3px;fill: rgb(12%,12%,14%); stroke:none;" transform="translate(0,259) scale(1,-1)">get_codemap</text>
			<rect x="168" y="118" width="62" height="36" rx="4" ry="4" style="stroke: rgb(12%,12%,14%); stroke-linecap: butt; stroke-width: 1.15; fill: rgb(81%,90%,95%); fill-rule: evenodd;"/>
			<text x="186.916796875" y="137.64499999999998" style="font-family: ArialEmbedded; font-size: 6.3px;fill: rgb(12%,12%,14%); stroke:none;" transform="translate(0,275) scale(1,-1)">read_file</text>
			<text x="176.23017578125" y="129.945" style="font-family: ArialEmbedded; font-size: 6.3px;fill: rgb(12%,12%,14%); stroke:none;" transform="translate(0,259) scale(1,-1)">bounded ranges</text>
			<path d="M 47,154 L 91,179 Z" style="stroke: rgb(12%,12%,14%); stroke-linecap: butt; stroke-width: 1.1;"/>
			<polygon points="91 179, 85.86477 178.9289, 88.31012 174.6251" style="stroke: rgb(12%,12%,14%); stroke-linecap: butt; stroke-width: 1; fill: rgb(12%,12%,14%); fill-rule: evenodd;"/>
			<path d="M 123,154 L 123,179 Z" style="stroke: rgb(12%,12%,14%); stroke-linecap: butt; stroke-width: 1.1;"/>
			<polygon points="123 179, 120.525 174.5, 125.475 174.5" style="stroke: rgb(12%,12%,14%); stroke-linecap: butt; stroke-width: 1; fill: rgb(12%,12%,14%); fill-rule: evenodd;"/>
			<path d="M 199,154 L 155,179 Z" style="stroke: rgb(12%,12%,14%); stroke-linecap: butt; stroke-width: 1.1;"/>
			<polygon points="155 179, 157.6899 174.6251, 160.1352 178.9289" style="stroke: rgb(12%,12%,14%); stroke-linecap: butt; stroke-width: 1; fill: rgb(12%,12%,14%); fill-rule: evenodd;"/>
			<rect x="53" y="62" width="140" height="34" rx="4" ry="4" style="stroke: rgb(12%,12%,14%); stroke-linecap: butt; stroke-width: 1.15; fill: rgb(95%,87%,76%); fill-rule: evenodd;"/>
			<text x="90.9847412109375" y="80.735" style="font-family: ArialEmbedded-Bold; font-size: 6.9px;fill: rgb(12%,12%,14%); stroke:none;" transform="translate(0,161) scale(1,-1)">Hypothesis planner</text>
			<text x="83.60295410156249" y="72.435" style="font-family: ArialEmbedded-Bold; font-size: 6.9px;fill: rgb(12%,12%,14%); stroke:none;" transform="translate(0,144) scale(1,-1)">query rewrite + disproof</text>
			<path d="M 88,96 L 47,118 Z" style="stroke: rgb(12%,12%,14%); stroke-linecap: butt; stroke-width: 1.1;"/>
			<polygon points="47 118, 49.795 113.6914, 52.13545 118.0532" style="stroke: rgb(12%,12%,14%); stroke-linecap: butt; stroke-width: 1; fill: rgb(12%,12%,14%); fill-rule: evenodd;"/>
			<path d="M 123,96 L 123,118 Z" style="stroke: rgb(12%,12%,14%); stroke-linecap: butt; stroke-width: 1.1;"/>
			<polygon points="123 118, 120.525 113.5, 125.475 113.5" style="stroke: rgb(12%,12%,14%); stroke-linecap: butt; stroke-width: 1; fill: rgb(12%,12%,14%); fill-rule: evenodd;"/>
			<path d="M 158,96 L 199,118 Z" style="stroke: rgb(12%,12%,14%); stroke-linecap: butt; stroke-width: 1.1;"/>
			<polygon points="199 118, 193.8646 118.0532, 196.205 113.6914" style="stroke: rgb(12%,12%,14%); stroke-linecap: butt; stroke-width: 1; fill: rgb(12%,12%,14%); fill-rule: evenodd;"/>
			<rect x="69" y="15" width="108" height="24" rx="4" ry="4" style="stroke: rgb(12%,12%,14%); stroke-linecap: butt; stroke-width: 1.15; fill: rgb(96%,85%,87%); fill-rule: evenodd;"/>
			<text x="95.0766845703125" y="24.515" style="font-family: ArialEmbedded-Bold; font-size: 7.1px;fill: rgb(12%,12%,14%); stroke:none;" transform="translate(0,49) scale(1,-1)">Objective + level</text>
			<path d="M 123,39 L 123,62 Z" style="stroke: rgb(12%,12%,14%); stroke-linecap: butt; stroke-width: 1.1;"/>
			<polygon points="123 62, 120.525 57.5, 125.475 57.5" style="stroke: rgb(12%,12%,14%); stroke-linecap: butt; stroke-width: 1; fill: rgb(12%,12%,14%); fill-rule: evenodd;"/>
			<path d="M 10 55 L 3 55 L 3 218 L 10 218 " style="stroke: rgb(12%,12%,14%); stroke-linecap: butt; stroke-width: 1.2; fill: none; fill-rule: evenodd;"/>
			<text x="-9.029296875" y="134.5" style="font-family: ArialEmbedded; font-size: 7px;fill: rgb(37%,38%,40%); stroke:none;" transform="translate(0,269) scale(1,-1)">1..T</text>
			<path d="M 205,226 L 236,226 Z" style="stroke: rgb(12%,12%,14%); stroke-linecap: butt; stroke-width: 1;"/>
			<path d="M 236,226 L 236,78 Z" style="stroke: rgb(12%,12%,14%); stroke-linecap: butt; stroke-width: 1;"/>
			<path d="M 236,78 L 193,78 Z" style="stroke: rgb(12%,12%,14%); stroke-linecap: butt; stroke-width: 1.1;"/>
			<polygon points="193 78, 197.5 75.525, 197.5 80.475" style="stroke: rgb(12%,12%,14%); stroke-linecap: butt; stroke-width: 1; fill: rgb(12%,12%,14%); fill-rule: evenodd;"/>
			<text x="239" y="157" style="font-family: ArialEmbedded; font-size: 6.2px;fill: rgb(37%,38%,40%); stroke:none;" transform="translate(0,314) scale(1,-1)">recover</text>
		</g>
	</g>
</svg>
